<svg width="196px" height="55px" viewBox="0 0 196 55" version="1.1" xmlns="http://www.w3.org/2000/svg" xmlns:xlink="http://www.w3.org/1999/xlink">
    <g id="Symbols" stroke="none" stroke-width="1" fill="none" fill-rule="evenodd">
        <g id="logo/horizontal/color" transform="translate(0.000000, -1.000000)">
            <g id="Group-51" transform="translate(0.000000, 1.000000)">
                <path d="M45.0428119,10.2604464 C44.9792093,9.618125 44.7241497,9.03931548 44.3425338,8.52532738 C43.7052093,7.75467262 43.0685338,7.04752976 42.3676066,6.40520833 C40.9664013,4.92741071 39.3107854,3.70627976 37.4001099,2.8066369 C27.8467325,-2.26907738 15.2994874,-0.341458333 7.40172583,7.62633929 C-2.91553245,17.9709226 -2.40606225,35.3843155 8.67572583,44.8940774 C19.1208384,53.8891964 35.9989046,51.7049107 43.4507987,39.881875 C48.3546927,32.0430655 49.6922954,18.9988988 45.0428119,10.2604464 M32.7506265,37.8900893 C25.6173947,43.6729464 15.3630901,41.3596726 10.9050636,33.5208631 C6.70144768,26.1312202 9.44025563,16.685625 16.1276199,11.8665774 C21.3501762,8.07550595 27.0822026,7.75467262 32.6870238,9.23247024 C32.7506265,9.2966369 32.8142291,9.36080357 32.8778318,9.36080357 C42.6862689,13.9873512 40.2025205,31.785744 32.7506265,37.8900893" id="Fill-27" fill="#83A840"></path>
                <path d="M64.5575974,31.7835833 L64.5575974,40.3720952 C64.5575974,45.1623333 62.2049483,47.6222738 58.0552,47.6222738 C53.7347629,47.6222738 51.5962861,45.119119 51.5962861,40.4146548 L51.5962861,31.6107262 C51.5962861,26.7772738 54.333796,24.576619 58.1837033,24.576619 C62.1621139,24.576619 64.5575974,27.0797738 64.5575974,31.7835833 M56.0023921,31.5249524 L56.0023921,40.5875119 C56.0023921,42.3566786 56.5579417,43.6950119 58.0980344,43.6950119 C59.5952927,43.6950119 60.1514914,42.57275 60.1514914,40.5010833 L60.1514914,31.5249524 C60.1514914,29.7983452 59.6809616,28.5470952 58.0980344,28.5470952 C56.6436106,28.5470952 56.0023921,29.5822738 56.0023921,31.5249524" id="Fill-29" fill="#241F21"></path>
                <path d="M66.6102755,31.3520298 C66.6102755,28.3309583 66.6102755,26.302506 66.5674411,24.9216131 L70.7600238,24.9216131 C70.8450437,25.3531012 70.9307126,26.3457202 70.9307126,27.1222679 C71.5725801,25.6981607 72.8128318,24.5765536 74.9947921,24.5765536 C78.1171629,24.5765536 79.5722358,26.7772083 79.5722358,31.1359583 L79.5722358,40.2856012 C79.5722358,45.4208988 77.9036397,47.6222083 74.5242623,47.6222083 C72.642143,47.6222083 71.5725801,46.7160179 71.0163815,45.7233988 L71.0163815,54.7859583 L66.6102755,54.7859583 L66.6102755,31.3520298 Z M71.0163815,39.8108988 C71.0163815,42.0547679 71.4440768,43.6517321 73.0698384,43.6517321 C74.7377854,43.6517321 75.1654808,42.3572679 75.1654808,40.3288155 L75.1654808,31.5248869 C75.1654808,29.4964345 74.5242623,28.590244 73.2405272,28.590244 C71.8289377,28.590244 71.0163815,29.4532202 71.0163815,32.0428036 L71.0163815,39.8108988 Z" id="Fill-31" fill="#241F21"></path>
                <path d="M85.9025166,37.3076786 L85.9025166,40.587381 C85.9025166,42.3139881 86.3302119,43.8677381 87.9988079,43.8677381 C89.7524238,43.8677381 89.966596,42.2707738 89.966596,40.6738095 L89.966596,40.587381 L94.2441987,40.587381 L94.2441987,40.6738095 C94.2441987,43.0041071 93.7736689,47.6221429 88.0844768,47.6221429 C82.4374702,47.6221429 81.6249139,44.0831548 81.6249139,39.5947619 L81.6249139,32.2581548 C81.6249139,29.193869 82.5659735,24.5764881 88.0844768,24.5764881 C92.7897748,24.5764881 94.3298675,27.8129762 94.3298675,32.2149405 L94.3298675,37.3076786 L85.9025166,37.3076786 Z M90.0944503,33.8119048 L90.0944503,31.5248214 C90.0944503,29.4531548 89.6239205,28.3308929 88.0416424,28.3308929 C86.630053,28.3308929 85.945351,29.3667262 85.945351,31.5248214 L85.945351,33.8119048 L90.0944503,33.8119048 Z" id="Fill-33" fill="#241F21"></path>
                <path d="M96.5105947,31.8267976 C96.5105947,27.2951905 96.5105947,25.9575119 96.4677603,24.9216786 L100.659694,24.9216786 C100.745363,25.4395952 100.831032,26.3457857 100.831032,26.950131 C101.472899,25.6550119 102.670317,24.576619 104.937946,24.576619 C107.632621,24.576619 109.471906,26.2593571 109.471906,30.4459048 L109.471906,47.2765595 L105.0658,47.2765595 L105.0658,31.308881 C105.0658,29.2804286 104.381747,28.5903095 103.140846,28.5903095 C101.601403,28.5903095 100.916701,29.4100714 100.916701,32.4743571 L100.916701,47.2765595 L96.5105947,47.2765595 L96.5105947,31.8267976 Z" id="Fill-35" fill="#241F21"></path>
                <path d="M115.076143,40.9398393 L115.076143,41.8460298 C115.076143,44.5220417 116.231375,45.6010893 117.899322,45.6010893 C119.86711,45.6010893 120.637481,44.3491845 120.637481,41.9756726 C120.637481,39.3860893 119.86711,38.350256 117.514461,36.7539464 C114.691282,34.8544821 113.407547,33.3439464 113.407547,30.4093036 C113.407547,27.517875 114.648448,25.1011488 117.984991,25.1011488 C121.621375,25.1011488 122.476766,27.6907321 122.476766,30.4093036 L122.476766,31.4883512 L120.423309,31.4883512 L120.423309,30.4093036 C120.423309,28.3382917 119.86711,26.956744 117.942156,26.956744 C116.231375,26.956744 115.546673,28.1222202 115.546673,30.1938869 C115.546673,32.2223393 116.145706,33.0853155 118.412686,34.6822798 C121.150196,36.537875 122.775958,38.0484107 122.775958,41.6306131 C122.775958,45.4282321 121.235865,47.4998988 117.771468,47.4998988 C114.00658,47.4998988 112.937017,44.8238869 112.937017,41.9324583 L112.937017,40.9398393 L115.076143,40.9398393 Z" id="Fill-37" fill="#241F21"></path>
                <path d="M125.811946,25.4465357 C127.394873,33.9054048 128.9778,42.0185595 129.191323,44.3495119 L129.234158,44.3495119 C129.704687,40.9827262 131.543972,32.1355833 132.784873,25.4465357 L134.92335,25.4465357 L130.175217,48.4057619 C128.934966,54.3182619 127.437707,54.8361786 125.170078,54.8361786 C124.742383,54.8361786 124.186184,54.74975 123.886992,54.6639762 L123.886992,52.6355238 C124.143999,52.6787381 124.699548,52.7651667 125.042224,52.7651667 C126.753005,52.7651667 127.437707,51.94475 128.164595,47.9310595 L123.544966,25.4465357 L125.811946,25.4465357 Z" id="Fill-39" fill="#241F21"></path>
                <path d="M137.746009,40.9398393 L137.746009,41.8460298 C137.746009,44.5220417 138.901241,45.6010893 140.569188,45.6010893 C142.536976,45.6010893 143.306698,44.3491845 143.306698,41.9756726 C143.306698,39.3860893 142.536976,38.350256 140.184327,36.7539464 C137.361148,34.8544821 136.077413,33.3439464 136.077413,30.4093036 C136.077413,27.517875 137.318314,25.1011488 140.654857,25.1011488 C144.290592,25.1011488 145.146632,27.6907321 145.146632,30.4093036 L145.146632,31.4883512 L143.093175,31.4883512 L143.093175,30.4093036 C143.093175,28.3382917 142.536976,26.956744 140.612023,26.956744 C138.901241,26.956744 138.216539,28.1222202 138.216539,30.1938869 C138.216539,32.2223393 138.815572,33.0853155 141.082552,34.6822798 C143.820062,36.537875 145.445824,38.0484107 145.445824,41.6306131 C145.445824,45.4282321 143.905731,47.4998988 140.440685,47.4998988 C136.676446,47.4998988 135.606883,44.8238869 135.606883,41.9324583 L135.606883,40.9398393 L137.746009,40.9398393 Z" id="Fill-41" fill="#241F21"></path>
                <path d="M145.87287,25.4465357 L148.482526,25.4465357 L148.482526,20.0087381 L150.535334,20.0087381 L150.535334,25.4465357 L153.829691,25.4465357 L153.829691,27.3453452 L150.535334,27.3453452 L150.535334,43.1840357 C150.535334,44.3495119 150.79234,45.6007619 152.161095,45.6007619 C152.588791,45.6007619 153.316327,45.5575476 153.658354,45.471119 L153.658354,47.1545119 C153.059321,47.3699286 152.20393,47.4131429 151.519228,47.4131429 C149.851281,47.4131429 148.482526,46.5501667 148.482526,43.5723095 L148.482526,27.3453452 L145.87287,27.3453452 L145.87287,25.4465357 Z" id="Fill-43" fill="#241F21"></path>
                <path d="M156.866134,36.537875 L156.866134,40.335494 C156.866134,42.8386488 157.336664,45.6010893 159.817816,45.6010893 C162.084796,45.6010893 162.59816,43.8312679 162.59816,41.4145417 L162.59816,41.1559107 L164.651617,41.1559107 L164.651617,41.3713274 C164.651617,44.0473393 164.00975,47.4998988 159.774981,47.4998988 C155.967909,47.4998988 154.812677,44.8671012 154.812677,40.4219226 L154.812677,31.6612083 C154.812677,28.1222202 156.096412,25.1011488 159.86065,25.1011488 C163.710558,25.1011488 164.694452,28.1654345 164.694452,31.6612083 L164.694452,36.537875 L156.866134,36.537875 Z M162.640995,34.725494 L162.640995,31.6612083 C162.640995,29.632756 162.427472,26.956744 159.817816,26.956744 C157.336664,26.956744 156.866134,29.1580536 156.866134,31.7044226 L156.866134,34.725494 L162.640995,34.725494 Z" id="Fill-45" fill="#241F21"></path>
                <path d="M167.260299,31.6610774 C167.260299,27.9931012 167.260299,26.5257798 167.217465,25.4467321 L169.185253,25.4467321 C169.270922,26.0504226 169.270922,26.8708393 169.270922,27.5609583 C169.869955,26.0936369 170.981703,25.1010179 172.906657,25.1010179 C174.489584,25.1010179 175.730485,25.7485774 176.15818,27.7338155 C176.756564,26.3097083 177.868962,25.1010179 180.008087,25.1010179 C181.975875,25.1010179 183.943664,25.8782202 183.943664,30.0208988 L183.943664,47.1547083 L181.847372,47.1547083 L181.847372,30.5388155 C181.847372,28.6832202 181.54818,27.086256 179.537558,27.086256 C177.142074,27.086256 176.62871,29.373994 176.62871,31.8339345 L176.62871,47.1547083 L174.532419,47.1547083 L174.532419,30.7548869 C174.532419,28.1653036 173.933385,27.086256 172.17977,27.086256 C169.869955,27.086256 169.356591,29.4172083 169.356591,32.178994 L169.356591,47.1547083 L167.260299,47.1547083 L167.260299,31.6610774 Z" id="Fill-47" fill="#241F21"></path>
                <path d="M188.092374,40.9398393 L188.092374,41.8460298 C188.092374,44.5220417 189.247605,45.6010893 190.915552,45.6010893 C192.88334,45.6010893 193.653711,44.3491845 193.653711,41.9756726 C193.653711,39.3860893 192.88334,38.350256 190.530691,36.7539464 C187.707513,34.8544821 186.423777,33.3439464 186.423777,30.4093036 C186.423777,27.517875 187.664678,25.1011488 191.001221,25.1011488 C194.637605,25.1011488 195.492996,27.6907321 195.492996,30.4093036 L195.492996,31.4883512 L193.439539,31.4883512 L193.439539,30.4093036 C193.439539,28.3382917 192.88334,26.956744 190.958387,26.956744 C189.247605,26.956744 188.562903,28.1222202 188.562903,30.1938869 C188.562903,32.2223393 189.161936,33.0853155 191.428917,34.6822798 C194.167075,36.537875 195.792188,38.0484107 195.792188,41.6306131 C195.792188,45.4282321 194.252095,47.4998988 190.787049,47.4998988 C187.022811,47.4998988 185.953248,44.8238869 185.953248,41.9324583 L185.953248,40.9398393 L188.092374,40.9398393 Z" id="Fill-49" fill="#241F21"></path>
            </g>
        </g>
    </g>
</svg>